<mxfile host="app.diagrams.net" modified="2023-04-10T01:16:06.460Z" agent="Mozilla/5.0 (X11; Ubuntu; Linux x86_64; rv:109.0) Gecko/20100101 Firefox/111.0" etag="MkS_JKKZ7iBggpUYEgDo" version="21.1.5" type="device">
  <diagram id="C5RBs43oDa-KdzZeNtuy" name="Page-1">
    <mxGraphModel dx="1239" dy="724" grid="1" gridSize="10" guides="1" tooltips="1" connect="1" arrows="1" fold="1" page="1" pageScale="1" pageWidth="827" pageHeight="1169" math="0" shadow="0">
      <root>
        <mxCell id="WIyWlLk6GJQsqaUBKTNV-0" />
        <mxCell id="WIyWlLk6GJQsqaUBKTNV-1" parent="WIyWlLk6GJQsqaUBKTNV-0" />
        <mxCell id="zkfFHV4jXpPFQw0GAbJ--0" value="FileIO" style="swimlane;fontStyle=2;align=center;verticalAlign=top;childLayout=stackLayout;horizontal=1;startSize=26;horizontalStack=0;resizeParent=1;resizeLast=0;collapsible=1;marginBottom=0;rounded=0;shadow=0;strokeWidth=1;" parent="WIyWlLk6GJQsqaUBKTNV-1" vertex="1">
          <mxGeometry x="220" y="120" width="160" height="230" as="geometry">
            <mxRectangle x="230" y="140" width="160" height="26" as="alternateBounds" />
          </mxGeometry>
        </mxCell>
        <mxCell id="zkfFHV4jXpPFQw0GAbJ--3" value="path:String&#xa;StudentArray[]:Student&#xa;course:Course&#xa;calculate:Calculator&#xa;&#xa;&#xa;&#xa;&#xa;" style="text;align=left;verticalAlign=top;spacingLeft=4;spacingRight=4;overflow=hidden;rotatable=0;points=[[0,0.5],[1,0.5]];portConstraint=eastwest;rounded=0;shadow=0;html=0;" parent="zkfFHV4jXpPFQw0GAbJ--0" vertex="1">
          <mxGeometry y="26" width="160" height="84" as="geometry" />
        </mxCell>
        <mxCell id="zkfFHV4jXpPFQw0GAbJ--4" value="" style="line;html=1;strokeWidth=1;align=left;verticalAlign=middle;spacingTop=-1;spacingLeft=3;spacingRight=3;rotatable=0;labelPosition=right;points=[];portConstraint=eastwest;" parent="zkfFHV4jXpPFQw0GAbJ--0" vertex="1">
          <mxGeometry y="110" width="160" height="8" as="geometry" />
        </mxCell>
        <mxCell id="zkfFHV4jXpPFQw0GAbJ--5" value="FileIO()&#xa;set_path():void&#xa;get_path():String&#xa;read_file():void&#xa;write_file():void&#xa;store_data():void&#xa;&#xa;&#xa;&#xa;&#xa;" style="text;align=left;verticalAlign=top;spacingLeft=4;spacingRight=4;overflow=hidden;rotatable=0;points=[[0,0.5],[1,0.5]];portConstraint=eastwest;" parent="zkfFHV4jXpPFQw0GAbJ--0" vertex="1">
          <mxGeometry y="118" width="160" height="112" as="geometry" />
        </mxCell>
        <mxCell id="8LjVWApjl97MRkZQmKgy-0" value="Course" style="swimlane;fontStyle=2;align=center;verticalAlign=top;childLayout=stackLayout;horizontal=1;startSize=26;horizontalStack=0;resizeParent=1;resizeLast=0;collapsible=1;marginBottom=0;rounded=0;shadow=0;strokeWidth=1;" vertex="1" parent="WIyWlLk6GJQsqaUBKTNV-1">
          <mxGeometry x="500" y="120" width="190" height="220" as="geometry">
            <mxRectangle x="230" y="140" width="160" height="26" as="alternateBounds" />
          </mxGeometry>
        </mxCell>
        <mxCell id="8LjVWApjl97MRkZQmKgy-1" value="name:String&#xa;code:String&#xa;activitiesFullMark:const int&#xa;oralPracticalFullMark:const int&#xa;midtermFullMark: const int&#xa;finalFullMark:const int&#xa;totalFullMark:const int&#xa;&#xa;&#xa;" style="text;align=left;verticalAlign=top;spacingLeft=4;spacingRight=4;overflow=hidden;rotatable=0;points=[[0,0.5],[1,0.5]];portConstraint=eastwest;rounded=0;shadow=0;html=0;" vertex="1" parent="8LjVWApjl97MRkZQmKgy-0">
          <mxGeometry y="26" width="190" height="114" as="geometry" />
        </mxCell>
        <mxCell id="8LjVWApjl97MRkZQmKgy-6" value="" style="endArrow=none;html=1;rounded=0;" edge="1" parent="8LjVWApjl97MRkZQmKgy-0" target="8LjVWApjl97MRkZQmKgy-1">
          <mxGeometry width="50" height="50" relative="1" as="geometry">
            <mxPoint y="140" as="sourcePoint" />
            <mxPoint x="80" y="140" as="targetPoint" />
            <Array as="points">
              <mxPoint x="190" y="140" />
            </Array>
          </mxGeometry>
        </mxCell>
        <mxCell id="8LjVWApjl97MRkZQmKgy-13" value="&lt;div align=&quot;left&quot;&gt;&lt;br&gt;&lt;/div&gt;&lt;div align=&quot;left&quot;&gt;Course()&lt;br&gt;&lt;/div&gt;&lt;div align=&quot;left&quot;&gt;set_name():void&lt;/div&gt;&lt;div align=&quot;left&quot;&gt;get_name():String&lt;/div&gt;&lt;div align=&quot;left&quot;&gt;set_code():void&lt;/div&gt;&lt;div align=&quot;left&quot;&gt;get_code():String&lt;br&gt;&lt;/div&gt;&lt;div align=&quot;left&quot;&gt;&lt;br&gt;&lt;/div&gt;" style="text;html=1;strokeColor=none;fillColor=none;align=left;verticalAlign=middle;whiteSpace=wrap;rounded=0;" vertex="1" parent="8LjVWApjl97MRkZQmKgy-0">
          <mxGeometry y="140" width="190" height="80" as="geometry" />
        </mxCell>
        <mxCell id="8LjVWApjl97MRkZQmKgy-15" value="Calculator" style="swimlane;fontStyle=2;align=center;verticalAlign=top;childLayout=stackLayout;horizontal=1;startSize=26;horizontalStack=0;resizeParent=1;resizeLast=0;collapsible=1;marginBottom=0;rounded=0;shadow=0;strokeWidth=1;" vertex="1" parent="WIyWlLk6GJQsqaUBKTNV-1">
          <mxGeometry x="200" y="400" width="200" height="120" as="geometry">
            <mxRectangle x="230" y="140" width="160" height="26" as="alternateBounds" />
          </mxGeometry>
        </mxCell>
        <mxCell id="8LjVWApjl97MRkZQmKgy-16" value="&#xa;&#xa;" style="text;align=left;verticalAlign=top;spacingLeft=4;spacingRight=4;overflow=hidden;rotatable=0;points=[[0,0.5],[1,0.5]];portConstraint=eastwest;rounded=0;shadow=0;html=0;" vertex="1" parent="8LjVWApjl97MRkZQmKgy-15">
          <mxGeometry y="26" width="200" height="24" as="geometry" />
        </mxCell>
        <mxCell id="8LjVWApjl97MRkZQmKgy-17" value="" style="line;html=1;strokeWidth=1;align=left;verticalAlign=middle;spacingTop=-1;spacingLeft=3;spacingRight=3;rotatable=0;labelPosition=right;points=[];portConstraint=eastwest;" vertex="1" parent="8LjVWApjl97MRkZQmKgy-15">
          <mxGeometry y="50" width="200" height="8" as="geometry" />
        </mxCell>
        <mxCell id="8LjVWApjl97MRkZQmKgy-18" value="compute_total_mark():int&#xa;compute_grade():int&#xa;compute_GPA():int&#xa;&#xa;&#xa;&#xa;&#xa;&#xa;&#xa;&#xa;" style="text;align=left;verticalAlign=top;spacingLeft=4;spacingRight=4;overflow=hidden;rotatable=0;points=[[0,0.5],[1,0.5]];portConstraint=eastwest;" vertex="1" parent="8LjVWApjl97MRkZQmKgy-15">
          <mxGeometry y="58" width="200" height="62" as="geometry" />
        </mxCell>
        <mxCell id="8LjVWApjl97MRkZQmKgy-20" value="Student" style="swimlane;fontStyle=2;align=center;verticalAlign=top;childLayout=stackLayout;horizontal=1;startSize=26;horizontalStack=0;resizeParent=1;resizeLast=0;collapsible=1;marginBottom=0;rounded=0;shadow=0;strokeWidth=1;" vertex="1" parent="WIyWlLk6GJQsqaUBKTNV-1">
          <mxGeometry x="485" y="380" width="220" height="490" as="geometry">
            <mxRectangle x="230" y="140" width="160" height="26" as="alternateBounds" />
          </mxGeometry>
        </mxCell>
        <mxCell id="8LjVWApjl97MRkZQmKgy-21" value="name:String&#xa;id:String&#xa;activitiesMark:int&#xa;oralPracticalMark:int&#xa;midtermMark:int&#xa;finalMark:int&#xa;totalMark:int&#xa;grade:String&#xa;gpa:float&#xa;&#xa;&#xa;&#xa;" style="text;align=left;verticalAlign=top;spacingLeft=4;spacingRight=4;overflow=hidden;rotatable=0;points=[[0,0.5],[1,0.5]];portConstraint=eastwest;rounded=0;shadow=0;html=0;" vertex="1" parent="8LjVWApjl97MRkZQmKgy-20">
          <mxGeometry y="26" width="220" height="154" as="geometry" />
        </mxCell>
        <mxCell id="8LjVWApjl97MRkZQmKgy-22" value="" style="line;html=1;strokeWidth=1;align=left;verticalAlign=middle;spacingTop=-1;spacingLeft=3;spacingRight=3;rotatable=0;labelPosition=right;points=[];portConstraint=eastwest;" vertex="1" parent="8LjVWApjl97MRkZQmKgy-20">
          <mxGeometry y="180" width="220" height="8" as="geometry" />
        </mxCell>
        <mxCell id="8LjVWApjl97MRkZQmKgy-23" value="Student()&#xa;set_name():void&#xa;get_name():String&#xa;set_id():void&#xa;get_id():String&#xa;set_activities_mark():void&#xa;get_activities_mark():int&#xa;set_oral_practical_mark():void&#xa;get_oral_practical_mark():int&#xa;set_midterm_mark():void&#xa;get_midterm_mark():int&#xa;set_final_mark():void&#xa;get_final_mark():int&#xa;set_total_mark():void&#xa;get_total_mark():int&#xa;set_grade():void&#xa;get_grade():String&#xa;set_gpa():void&#xa;get_gpa():gloat&#xa;&#xa;&#xa;" style="text;align=left;verticalAlign=top;spacingLeft=4;spacingRight=4;overflow=hidden;rotatable=0;points=[[0,0.5],[1,0.5]];portConstraint=eastwest;" vertex="1" parent="8LjVWApjl97MRkZQmKgy-20">
          <mxGeometry y="188" width="220" height="302" as="geometry" />
        </mxCell>
        <mxCell id="8LjVWApjl97MRkZQmKgy-27" style="edgeStyle=orthogonalEdgeStyle;rounded=0;orthogonalLoop=1;jettySize=auto;html=1;entryX=0.005;entryY=0.065;entryDx=0;entryDy=0;entryPerimeter=0;" edge="1" parent="WIyWlLk6GJQsqaUBKTNV-1" source="zkfFHV4jXpPFQw0GAbJ--5" target="8LjVWApjl97MRkZQmKgy-21">
          <mxGeometry relative="1" as="geometry" />
        </mxCell>
        <mxCell id="8LjVWApjl97MRkZQmKgy-28" value="Program" style="swimlane;fontStyle=2;align=center;verticalAlign=top;childLayout=stackLayout;horizontal=1;startSize=26;horizontalStack=0;resizeParent=1;resizeLast=0;collapsible=1;marginBottom=0;rounded=0;shadow=0;strokeWidth=1;" vertex="1" parent="WIyWlLk6GJQsqaUBKTNV-1">
          <mxGeometry x="30" y="150" width="160" height="100" as="geometry">
            <mxRectangle x="230" y="140" width="160" height="26" as="alternateBounds" />
          </mxGeometry>
        </mxCell>
        <mxCell id="8LjVWApjl97MRkZQmKgy-29" value="&#xa;&#xa;" style="text;align=left;verticalAlign=top;spacingLeft=4;spacingRight=4;overflow=hidden;rotatable=0;points=[[0,0.5],[1,0.5]];portConstraint=eastwest;rounded=0;shadow=0;html=0;" vertex="1" parent="8LjVWApjl97MRkZQmKgy-28">
          <mxGeometry y="26" width="160" height="24" as="geometry" />
        </mxCell>
        <mxCell id="8LjVWApjl97MRkZQmKgy-30" value="" style="line;html=1;strokeWidth=1;align=left;verticalAlign=middle;spacingTop=-1;spacingLeft=3;spacingRight=3;rotatable=0;labelPosition=right;points=[];portConstraint=eastwest;" vertex="1" parent="8LjVWApjl97MRkZQmKgy-28">
          <mxGeometry y="50" width="160" height="8" as="geometry" />
        </mxCell>
        <mxCell id="8LjVWApjl97MRkZQmKgy-31" value="Main():String&#xa;&#xa;&#xa;&#xa;" style="text;align=left;verticalAlign=top;spacingLeft=4;spacingRight=4;overflow=hidden;rotatable=0;points=[[0,0.5],[1,0.5]];portConstraint=eastwest;" vertex="1" parent="8LjVWApjl97MRkZQmKgy-28">
          <mxGeometry y="58" width="160" height="42" as="geometry" />
        </mxCell>
        <mxCell id="8LjVWApjl97MRkZQmKgy-34" style="edgeStyle=orthogonalEdgeStyle;rounded=0;orthogonalLoop=1;jettySize=auto;html=1;exitX=1;exitY=0.5;exitDx=0;exitDy=0;entryX=-0.005;entryY=0.368;entryDx=0;entryDy=0;entryPerimeter=0;" edge="1" parent="WIyWlLk6GJQsqaUBKTNV-1" source="zkfFHV4jXpPFQw0GAbJ--3" target="8LjVWApjl97MRkZQmKgy-1">
          <mxGeometry relative="1" as="geometry" />
        </mxCell>
        <mxCell id="8LjVWApjl97MRkZQmKgy-37" style="edgeStyle=orthogonalEdgeStyle;rounded=0;orthogonalLoop=1;jettySize=auto;html=1;exitX=0.494;exitY=1;exitDx=0;exitDy=0;exitPerimeter=0;" edge="1" parent="WIyWlLk6GJQsqaUBKTNV-1" source="zkfFHV4jXpPFQw0GAbJ--5" target="8LjVWApjl97MRkZQmKgy-15">
          <mxGeometry relative="1" as="geometry">
            <Array as="points">
              <mxPoint x="299" y="353" />
              <mxPoint x="300" y="353" />
            </Array>
          </mxGeometry>
        </mxCell>
        <mxCell id="8LjVWApjl97MRkZQmKgy-38" style="edgeStyle=orthogonalEdgeStyle;rounded=0;orthogonalLoop=1;jettySize=auto;html=1;exitX=1;exitY=0.5;exitDx=0;exitDy=0;entryX=0;entryY=0.5;entryDx=0;entryDy=0;" edge="1" parent="WIyWlLk6GJQsqaUBKTNV-1" source="8LjVWApjl97MRkZQmKgy-29" target="zkfFHV4jXpPFQw0GAbJ--3">
          <mxGeometry relative="1" as="geometry" />
        </mxCell>
        <mxCell id="8LjVWApjl97MRkZQmKgy-39" value="FileIO" style="swimlane;fontStyle=2;align=center;verticalAlign=top;childLayout=stackLayout;horizontal=1;startSize=26;horizontalStack=0;resizeParent=1;resizeLast=0;collapsible=1;marginBottom=0;rounded=0;shadow=0;strokeWidth=1;" vertex="1" parent="WIyWlLk6GJQsqaUBKTNV-1">
          <mxGeometry x="220" y="120" width="160" height="230" as="geometry">
            <mxRectangle x="230" y="140" width="160" height="26" as="alternateBounds" />
          </mxGeometry>
        </mxCell>
        <mxCell id="8LjVWApjl97MRkZQmKgy-40" value="path:String&#xa;StudentArray[]:Student&#xa;course:Course&#xa;calculate:Calculator&#xa;&#xa;&#xa;&#xa;&#xa;" style="text;align=left;verticalAlign=top;spacingLeft=4;spacingRight=4;overflow=hidden;rotatable=0;points=[[0,0.5],[1,0.5]];portConstraint=eastwest;rounded=0;shadow=0;html=0;" vertex="1" parent="8LjVWApjl97MRkZQmKgy-39">
          <mxGeometry y="26" width="160" height="84" as="geometry" />
        </mxCell>
        <mxCell id="8LjVWApjl97MRkZQmKgy-41" value="" style="line;html=1;strokeWidth=1;align=left;verticalAlign=middle;spacingTop=-1;spacingLeft=3;spacingRight=3;rotatable=0;labelPosition=right;points=[];portConstraint=eastwest;" vertex="1" parent="8LjVWApjl97MRkZQmKgy-39">
          <mxGeometry y="110" width="160" height="8" as="geometry" />
        </mxCell>
        <mxCell id="8LjVWApjl97MRkZQmKgy-42" value="FileIO()&#xa;set_path():void&#xa;get_path():String&#xa;read_file():void&#xa;write_file():void&#xa;store_data():void&#xa;&#xa;&#xa;&#xa;&#xa;" style="text;align=left;verticalAlign=top;spacingLeft=4;spacingRight=4;overflow=hidden;rotatable=0;points=[[0,0.5],[1,0.5]];portConstraint=eastwest;" vertex="1" parent="8LjVWApjl97MRkZQmKgy-39">
          <mxGeometry y="118" width="160" height="112" as="geometry" />
        </mxCell>
        <mxCell id="8LjVWApjl97MRkZQmKgy-43" value="Course" style="swimlane;fontStyle=2;align=center;verticalAlign=top;childLayout=stackLayout;horizontal=1;startSize=26;horizontalStack=0;resizeParent=1;resizeLast=0;collapsible=1;marginBottom=0;rounded=0;shadow=0;strokeWidth=1;" vertex="1" parent="WIyWlLk6GJQsqaUBKTNV-1">
          <mxGeometry x="500" y="120" width="190" height="220" as="geometry">
            <mxRectangle x="230" y="140" width="160" height="26" as="alternateBounds" />
          </mxGeometry>
        </mxCell>
        <mxCell id="8LjVWApjl97MRkZQmKgy-44" value="name:String&#xa;code:String&#xa;activitiesFullMark:const int&#xa;oralPracticalFullMark:const int&#xa;midtermFullMark: const int&#xa;finalFullMark:const int&#xa;totalFullMark:const int&#xa;&#xa;&#xa;" style="text;align=left;verticalAlign=top;spacingLeft=4;spacingRight=4;overflow=hidden;rotatable=0;points=[[0,0.5],[1,0.5]];portConstraint=eastwest;rounded=0;shadow=0;html=0;" vertex="1" parent="8LjVWApjl97MRkZQmKgy-43">
          <mxGeometry y="26" width="190" height="114" as="geometry" />
        </mxCell>
        <mxCell id="8LjVWApjl97MRkZQmKgy-45" value="" style="endArrow=none;html=1;rounded=0;" edge="1" parent="8LjVWApjl97MRkZQmKgy-43" target="8LjVWApjl97MRkZQmKgy-44">
          <mxGeometry width="50" height="50" relative="1" as="geometry">
            <mxPoint y="140" as="sourcePoint" />
            <mxPoint x="80" y="140" as="targetPoint" />
            <Array as="points">
              <mxPoint x="190" y="140" />
            </Array>
          </mxGeometry>
        </mxCell>
        <mxCell id="8LjVWApjl97MRkZQmKgy-46" value="&lt;div align=&quot;left&quot;&gt;&lt;br&gt;&lt;/div&gt;&lt;div align=&quot;left&quot;&gt;Course()&lt;br&gt;&lt;/div&gt;&lt;div align=&quot;left&quot;&gt;set_name():void&lt;/div&gt;&lt;div align=&quot;left&quot;&gt;get_name():String&lt;/div&gt;&lt;div align=&quot;left&quot;&gt;set_code():void&lt;/div&gt;&lt;div align=&quot;left&quot;&gt;get_code():String&lt;br&gt;&lt;/div&gt;&lt;div align=&quot;left&quot;&gt;&lt;br&gt;&lt;/div&gt;" style="text;html=1;strokeColor=none;fillColor=none;align=left;verticalAlign=middle;whiteSpace=wrap;rounded=0;" vertex="1" parent="8LjVWApjl97MRkZQmKgy-43">
          <mxGeometry y="140" width="190" height="80" as="geometry" />
        </mxCell>
        <mxCell id="8LjVWApjl97MRkZQmKgy-47" value="Calculator" style="swimlane;fontStyle=2;align=center;verticalAlign=top;childLayout=stackLayout;horizontal=1;startSize=26;horizontalStack=0;resizeParent=1;resizeLast=0;collapsible=1;marginBottom=0;rounded=0;shadow=0;strokeWidth=1;" vertex="1" parent="WIyWlLk6GJQsqaUBKTNV-1">
          <mxGeometry x="200" y="400" width="200" height="120" as="geometry">
            <mxRectangle x="230" y="140" width="160" height="26" as="alternateBounds" />
          </mxGeometry>
        </mxCell>
        <mxCell id="8LjVWApjl97MRkZQmKgy-48" value="&#xa;&#xa;" style="text;align=left;verticalAlign=top;spacingLeft=4;spacingRight=4;overflow=hidden;rotatable=0;points=[[0,0.5],[1,0.5]];portConstraint=eastwest;rounded=0;shadow=0;html=0;" vertex="1" parent="8LjVWApjl97MRkZQmKgy-47">
          <mxGeometry y="26" width="200" height="24" as="geometry" />
        </mxCell>
        <mxCell id="8LjVWApjl97MRkZQmKgy-49" value="" style="line;html=1;strokeWidth=1;align=left;verticalAlign=middle;spacingTop=-1;spacingLeft=3;spacingRight=3;rotatable=0;labelPosition=right;points=[];portConstraint=eastwest;" vertex="1" parent="8LjVWApjl97MRkZQmKgy-47">
          <mxGeometry y="50" width="200" height="8" as="geometry" />
        </mxCell>
        <mxCell id="8LjVWApjl97MRkZQmKgy-50" value="compute_total_mark():int&#xa;compute_grade():int&#xa;compute_GPA():int&#xa;&#xa;&#xa;&#xa;&#xa;&#xa;&#xa;&#xa;" style="text;align=left;verticalAlign=top;spacingLeft=4;spacingRight=4;overflow=hidden;rotatable=0;points=[[0,0.5],[1,0.5]];portConstraint=eastwest;" vertex="1" parent="8LjVWApjl97MRkZQmKgy-47">
          <mxGeometry y="58" width="200" height="62" as="geometry" />
        </mxCell>
        <mxCell id="8LjVWApjl97MRkZQmKgy-51" value="Student" style="swimlane;fontStyle=2;align=center;verticalAlign=top;childLayout=stackLayout;horizontal=1;startSize=26;horizontalStack=0;resizeParent=1;resizeLast=0;collapsible=1;marginBottom=0;rounded=0;shadow=0;strokeWidth=1;" vertex="1" parent="WIyWlLk6GJQsqaUBKTNV-1">
          <mxGeometry x="485" y="380" width="220" height="490" as="geometry">
            <mxRectangle x="230" y="140" width="160" height="26" as="alternateBounds" />
          </mxGeometry>
        </mxCell>
        <mxCell id="8LjVWApjl97MRkZQmKgy-52" value="name:String&#xa;id:String&#xa;activitiesMark:int&#xa;oralPracticalMark:int&#xa;midtermMark:int&#xa;finalMark:int&#xa;totalMark:int&#xa;grade:String&#xa;gpa:float&#xa;&#xa;&#xa;&#xa;" style="text;align=left;verticalAlign=top;spacingLeft=4;spacingRight=4;overflow=hidden;rotatable=0;points=[[0,0.5],[1,0.5]];portConstraint=eastwest;rounded=0;shadow=0;html=0;" vertex="1" parent="8LjVWApjl97MRkZQmKgy-51">
          <mxGeometry y="26" width="220" height="154" as="geometry" />
        </mxCell>
        <mxCell id="8LjVWApjl97MRkZQmKgy-53" value="" style="line;html=1;strokeWidth=1;align=left;verticalAlign=middle;spacingTop=-1;spacingLeft=3;spacingRight=3;rotatable=0;labelPosition=right;points=[];portConstraint=eastwest;" vertex="1" parent="8LjVWApjl97MRkZQmKgy-51">
          <mxGeometry y="180" width="220" height="8" as="geometry" />
        </mxCell>
        <mxCell id="8LjVWApjl97MRkZQmKgy-54" value="Student()&#xa;set_name():void&#xa;get_name():String&#xa;set_id():void&#xa;get_id():String&#xa;set_activities_mark():void&#xa;get_activities_mark():int&#xa;set_oral_practical_mark():void&#xa;get_oral_practical_mark():int&#xa;set_midterm_mark():void&#xa;get_midterm_mark():int&#xa;set_final_mark():void&#xa;get_final_mark():int&#xa;set_total_mark():void&#xa;get_total_mark():int&#xa;set_grade():void&#xa;get_grade():String&#xa;set_gpa():void&#xa;get_gpa():gloat&#xa;&#xa;&#xa;" style="text;align=left;verticalAlign=top;spacingLeft=4;spacingRight=4;overflow=hidden;rotatable=0;points=[[0,0.5],[1,0.5]];portConstraint=eastwest;" vertex="1" parent="8LjVWApjl97MRkZQmKgy-51">
          <mxGeometry y="188" width="220" height="302" as="geometry" />
        </mxCell>
        <mxCell id="8LjVWApjl97MRkZQmKgy-55" style="edgeStyle=orthogonalEdgeStyle;rounded=0;orthogonalLoop=1;jettySize=auto;html=1;entryX=0.005;entryY=0.065;entryDx=0;entryDy=0;entryPerimeter=0;" edge="1" parent="WIyWlLk6GJQsqaUBKTNV-1" source="8LjVWApjl97MRkZQmKgy-42" target="8LjVWApjl97MRkZQmKgy-52">
          <mxGeometry relative="1" as="geometry" />
        </mxCell>
        <mxCell id="8LjVWApjl97MRkZQmKgy-56" value="Program" style="swimlane;fontStyle=2;align=center;verticalAlign=top;childLayout=stackLayout;horizontal=1;startSize=26;horizontalStack=0;resizeParent=1;resizeLast=0;collapsible=1;marginBottom=0;rounded=0;shadow=0;strokeWidth=1;" vertex="1" parent="WIyWlLk6GJQsqaUBKTNV-1">
          <mxGeometry x="30" y="150" width="160" height="100" as="geometry">
            <mxRectangle x="230" y="140" width="160" height="26" as="alternateBounds" />
          </mxGeometry>
        </mxCell>
        <mxCell id="8LjVWApjl97MRkZQmKgy-57" value="&#xa;&#xa;" style="text;align=left;verticalAlign=top;spacingLeft=4;spacingRight=4;overflow=hidden;rotatable=0;points=[[0,0.5],[1,0.5]];portConstraint=eastwest;rounded=0;shadow=0;html=0;" vertex="1" parent="8LjVWApjl97MRkZQmKgy-56">
          <mxGeometry y="26" width="160" height="24" as="geometry" />
        </mxCell>
        <mxCell id="8LjVWApjl97MRkZQmKgy-58" value="" style="line;html=1;strokeWidth=1;align=left;verticalAlign=middle;spacingTop=-1;spacingLeft=3;spacingRight=3;rotatable=0;labelPosition=right;points=[];portConstraint=eastwest;" vertex="1" parent="8LjVWApjl97MRkZQmKgy-56">
          <mxGeometry y="50" width="160" height="8" as="geometry" />
        </mxCell>
        <mxCell id="8LjVWApjl97MRkZQmKgy-59" value="Main():String&#xa;&#xa;&#xa;&#xa;" style="text;align=left;verticalAlign=top;spacingLeft=4;spacingRight=4;overflow=hidden;rotatable=0;points=[[0,0.5],[1,0.5]];portConstraint=eastwest;" vertex="1" parent="8LjVWApjl97MRkZQmKgy-56">
          <mxGeometry y="58" width="160" height="42" as="geometry" />
        </mxCell>
        <mxCell id="8LjVWApjl97MRkZQmKgy-60" style="edgeStyle=orthogonalEdgeStyle;rounded=0;orthogonalLoop=1;jettySize=auto;html=1;exitX=1;exitY=0.5;exitDx=0;exitDy=0;entryX=-0.005;entryY=0.368;entryDx=0;entryDy=0;entryPerimeter=0;" edge="1" parent="WIyWlLk6GJQsqaUBKTNV-1" source="8LjVWApjl97MRkZQmKgy-40" target="8LjVWApjl97MRkZQmKgy-44">
          <mxGeometry relative="1" as="geometry" />
        </mxCell>
        <mxCell id="8LjVWApjl97MRkZQmKgy-61" style="edgeStyle=orthogonalEdgeStyle;rounded=0;orthogonalLoop=1;jettySize=auto;html=1;exitX=0.494;exitY=1;exitDx=0;exitDy=0;exitPerimeter=0;" edge="1" parent="WIyWlLk6GJQsqaUBKTNV-1" source="8LjVWApjl97MRkZQmKgy-42" target="8LjVWApjl97MRkZQmKgy-47">
          <mxGeometry relative="1" as="geometry">
            <Array as="points">
              <mxPoint x="299" y="353" />
              <mxPoint x="300" y="353" />
            </Array>
          </mxGeometry>
        </mxCell>
        <mxCell id="8LjVWApjl97MRkZQmKgy-62" style="edgeStyle=orthogonalEdgeStyle;rounded=0;orthogonalLoop=1;jettySize=auto;html=1;exitX=1;exitY=0.5;exitDx=0;exitDy=0;entryX=0;entryY=0.5;entryDx=0;entryDy=0;" edge="1" parent="WIyWlLk6GJQsqaUBKTNV-1" source="8LjVWApjl97MRkZQmKgy-57" target="8LjVWApjl97MRkZQmKgy-40">
          <mxGeometry relative="1" as="geometry" />
        </mxCell>
      </root>
    </mxGraphModel>
  </diagram>
</mxfile>
